<svg version="1.2" xmlns="http://www.w3.org/2000/svg" viewBox="0 0 417 120" width="417" height="120"><style>.a{fill:none;stroke:#fff;stroke-miterlimit:100;stroke-width:4}.b{fill:#fff}</style><path fill-rule="evenodd" class="a" d="m80.4 9.1v-5.9h-17.3-30.1c-16.5 0-30 13.5-30 30v30 18.7c0 1.9 1.1 3.5 2.8 4.2 1.7 0.7 3.5 0.3 4.8-1l26.8-26.7c2.7-2.8 3.5-6.6 2.2-10.2l-2.9-8.1c-1.8-4.9 0.6-10.3 5.4-12.3l35.6-14.6c1.7-0.7 2.7-2.3 2.7-4.1z"/><path fill-rule="evenodd" class="b" d="m3 104.8h17.4 30c16.5 0 30-13.5 30-30v-30-18.7c0-1.9-1-3.5-2.7-4.2-1.7-0.7-3.6-0.3-4.9 1l-26.9 26.9c-2.6 2.7-3.5 6.3-2.4 9.8l2.8 8.9c1.5 4.8-0.9 10-5.6 11.9l-34.9 14.4c-1.7 0.7-2.8 2.3-2.8 4.1 0 0 0 5.9 0 5.9z"/><path fill-rule="evenodd" class="b" d="m113.2 103.3q0-16.3 0-32.9 0-16.6 0-32.8 4.2 0 8.6 0 4.2 0 8.4 0 5.1 9.2 10.4 18.5 5.2 9.4 10.4 18.6 0-9.2 0-18.6 0-9.3 0-18.5 4.1 0 8.3 0 4.1 0 8.3 0 0 16.2 0 32.8 0 16.6 0 32.9-4.2 0-8.5 0-4.3 0-8.5 0-5.1-9.2-10.4-18.6-5.3-9.3-10.4-18.5 0 9.2 0 18.5 0 9.4 0 18.6-4.1 0-8.3 0-4.2 0-8.3 0zm108.9-2.4q-6.6 2.8-13.2 3.5-6.6 0.7-12.4-0.7-5.9-1.4-10.4-4.8-4.5-3.4-7.1-8.6-2.5-5.2-2.5-12 0-5.7 1.8-10.5 1.9-4.8 5.4-8.4 3.5-3.7 8.2-5.6 4.7-2 10.3-2 5.1 0 9.1 1.6 4.1 1.7 7.1 4.6 3 3 4.8 7 1.8 4.1 2.3 8.9 0.5 4.8-0.6 10.2-7.9 0-15.9 0-8 0-15.9 0 1.8 3.7 6.1 5.3 4.3 1.5 10.2 0.9 6-0.6 12.7-3.1 0 3.4 0 6.9 0 3.5 0 6.8zm-20.2-34.8q-2.8 0-5.2 1.5-2.4 1.6-3.6 4.8 4.3 0 8.7 0 4.4 0 8.7 0-1.1-3.3-3.4-4.8-2.2-1.5-5.2-1.5zm75 34.8q-6.7 2.8-13.3 3.5-6.5 0.7-12.3-0.7-5.9-1.4-10.4-4.8-4.6-3.4-7.1-8.6-2.6-5.2-2.6-12 0-5.7 1.9-10.5 1.9-4.8 5.4-8.4 3.4-3.7 8.2-5.6 4.7-2 10.3-2 5 0 9.1 1.6 4 1.7 7 4.6 3 3 4.9 7 1.8 4.1 2.3 8.9 0.4 4.8-0.6 10.2-7.9 0-16 0-8 0-15.9 0 1.8 3.7 6.2 5.3 4.3 1.5 10.2 0.9 5.9-0.6 12.7-3.1 0 3.4 0 6.9 0 3.5 0 6.8zm-20.3-34.8q-2.8 0-5.2 1.5-2.3 1.6-3.6 4.8 4.4 0 8.8 0 4.4 0 8.7 0-1.2-3.3-3.4-4.8-2.3-1.5-5.3-1.5zm27-12.8q4.5 0 8.9 0 4.5 0 8.9 0 1.8 2.9 3.6 5.9 1.8 2.9 3.6 5.8 1.8-2.9 3.6-5.8 1.9-3 3.7-5.9 4.4 0 8.8 0 4.4 0 8.8 0-3.8 5.9-7.7 11.9-3.9 6-7.7 12 4 6.5 8 13 4.1 6.6 8 13.1-4.5 0-8.9 0-4.5 0-8.9 0-1.9-3.3-3.9-6.7-2-3.3-3.9-6.6-2 3.3-4 6.6-2.1 3.4-4 6.7-4.4 0-8.8 0-4.5 0-8.8 0 3.9-6.3 8-12.8 4-6.6 8-12.8-3.8-6-7.6-12.2-3.9-6.2-7.7-12.2zm72.2 65.4q-3.9 0-7.9 0-4.1 0-8.1 0 0-16.1 0-32.7 0-16.5 0-32.7 4 0 8.1 0 4 0 7.9 0 0 0.7 0 1.4 0 0.7 0 1.4 2.4-1.9 5.5-3 3.1-1.1 6.6-1.1 4.8 0 9.1 1.9 4.4 1.8 7.7 5.3 3.3 3.5 5.2 8.3 1.9 4.9 1.9 10.8 0 5.7-1.9 10.6-1.9 4.8-5.2 8.3-3.3 3.5-7.7 5.5-4.3 1.9-9.2 1.9-3.5 0-6.6-1.1-3-1.1-5.4-3.1 0 4.5 0 9.1 0 4.7 0 9.2zm9.8-28.2q4.8 0 7.5-3.3 2.8-3.4 2.8-8.9 0-5.7-2.8-8.9-2.7-3.3-7.5-3.3-4.6 0-7.4 3.3-2.8 3.3-2.8 8.9 0 5.4 2.8 8.8 2.8 3.4 7.4 3.4zm41 14.3q-2.8 0-5.2-1.3-2.4-1.4-3.7-3.7-1.4-2.3-1.4-5 0-2.7 1.4-5 1.3-2.3 3.7-3.6 2.4-1.4 5.2-1.4 2.8 0 5 1.4 2.3 1.3 3.7 3.6 1.4 2.3 1.4 5 0 2.7-1.4 5-1.4 2.3-3.7 3.7-2.2 1.3-5 1.3z"/></svg>